<?xml version="1.0" encoding="UTF-8" standalone="no"?>
<!DOCTYPE svg PUBLIC "-//W3C//DTD SVG 1.1//EN"
 "http://www.w3.org/Graphics/SVG/1.1/DTD/svg11.dtd">
<!-- Generated by graphviz version 2.43.0 (0)
 -->
<!-- Title: snakemake_dag Pages: 1 -->
<svg width="322pt" height="260pt"
 viewBox="0.00 0.00 322.00 260.00" xmlns="http://www.w3.org/2000/svg" xmlns:xlink="http://www.w3.org/1999/xlink">
<g id="graph0" class="graph" transform="scale(1 1) rotate(0) translate(4 256)">
<title>snakemake_dag</title>
<polygon fill="white" stroke="transparent" points="-4,4 -4,-256 318,-256 318,4 -4,4"/>
<!-- 0 -->
<g id="node1" class="node">
<title>0</title>
<path fill="none" stroke="#d85656" stroke-width="2" d="M150,-36C150,-36 79,-36 79,-36 73,-36 67,-30 67,-24 67,-24 67,-12 67,-12 67,-6 73,0 79,0 79,0 150,0 150,0 156,0 162,-6 162,-12 162,-12 162,-24 162,-24 162,-30 156,-36 150,-36"/>
<text text-anchor="middle" x="114.5" y="-15.5" font-family="sans" font-size="10.00">make_summary</text>
</g>
<!-- 1 -->
<g id="node2" class="node">
<title>1</title>
<path fill="none" stroke="#d8ac56" stroke-width="2" d="M55,-108C55,-108 12,-108 12,-108 6,-108 0,-102 0,-96 0,-96 0,-84 0,-84 0,-78 6,-72 12,-72 12,-72 55,-72 55,-72 61,-72 67,-78 67,-84 67,-84 67,-96 67,-96 67,-102 61,-108 55,-108"/>
<text text-anchor="middle" x="33.5" y="-87.5" font-family="sans" font-size="10.00">make_dag</text>
</g>
<!-- 1&#45;&gt;0 -->
<g id="edge1" class="edge">
<title>1&#45;&gt;0</title>
<path fill="none" stroke="grey" stroke-width="2" d="M53.52,-71.7C63.63,-62.97 76.04,-52.24 87.02,-42.75"/>
<polygon fill="grey" stroke="grey" stroke-width="2" points="89.43,-45.29 94.71,-36.1 84.85,-39.99 89.43,-45.29"/>
</g>
<!-- 2 -->
<g id="node3" class="node">
<title>2</title>
<path fill="none" stroke="#56a9d8" stroke-width="2" d="M126.5,-252C126.5,-252 64.5,-252 64.5,-252 58.5,-252 52.5,-246 52.5,-240 52.5,-240 52.5,-228 52.5,-228 52.5,-222 58.5,-216 64.5,-216 64.5,-216 126.5,-216 126.5,-216 132.5,-216 138.5,-222 138.5,-228 138.5,-228 138.5,-240 138.5,-240 138.5,-246 132.5,-252 126.5,-252"/>
<text text-anchor="middle" x="95.5" y="-231.5" font-family="sans" font-size="10.00">build_variants</text>
</g>
<!-- 2&#45;&gt;0 -->
<g id="edge2" class="edge">
<title>2&#45;&gt;0</title>
<path fill="none" stroke="grey" stroke-width="2" d="M97.02,-215.85C100.31,-178.83 108.09,-91.18 112.07,-46.39"/>
<polygon fill="grey" stroke="grey" stroke-width="2" points="115.57,-46.5 112.97,-36.23 108.6,-45.88 115.57,-46.5"/>
</g>
<!-- 3 -->
<g id="node4" class="node">
<title>3</title>
<path fill="none" stroke="#afd856" stroke-width="2" d="M223,-180C223,-180 158,-180 158,-180 152,-180 146,-174 146,-168 146,-168 146,-156 146,-156 146,-150 152,-144 158,-144 158,-144 223,-144 223,-144 229,-144 235,-150 235,-156 235,-156 235,-168 235,-168 235,-174 229,-180 223,-180"/>
<text text-anchor="middle" x="190.5" y="-159.5" font-family="sans" font-size="10.00">count_variants</text>
</g>
<!-- 2&#45;&gt;3 -->
<g id="edge5" class="edge">
<title>2&#45;&gt;3</title>
<path fill="none" stroke="grey" stroke-width="2" d="M118.98,-215.7C131.06,-206.8 145.95,-195.82 159.02,-186.2"/>
<polygon fill="grey" stroke="grey" stroke-width="2" points="161.31,-188.85 167.29,-180.1 157.16,-183.22 161.31,-188.85"/>
</g>
<!-- 3&#45;&gt;0 -->
<g id="edge3" class="edge">
<title>3&#45;&gt;0</title>
<path fill="none" stroke="grey" stroke-width="2" d="M177.27,-143.9C169.78,-133.78 160.53,-120.53 153.5,-108 142.15,-87.77 131.74,-63.58 124.53,-45.54"/>
<polygon fill="grey" stroke="grey" stroke-width="2" points="127.78,-44.24 120.87,-36.21 121.27,-46.8 127.78,-44.24"/>
</g>
<!-- 5 -->
<g id="node6" class="node">
<title>5</title>
<path fill="none" stroke="#56d8a9" stroke-width="2" d="M251,-108C251,-108 174,-108 174,-108 168,-108 162,-102 162,-96 162,-96 162,-84 162,-84 162,-78 168,-72 174,-72 174,-72 251,-72 251,-72 257,-72 263,-78 263,-84 263,-84 263,-96 263,-96 263,-102 257,-108 251,-108"/>
<text text-anchor="middle" x="212.5" y="-87.5" font-family="sans" font-size="10.00">counts_to_scores</text>
</g>
<!-- 3&#45;&gt;5 -->
<g id="edge7" class="edge">
<title>3&#45;&gt;5</title>
<path fill="none" stroke="grey" stroke-width="2" d="M195.94,-143.7C198.39,-135.9 201.34,-126.51 204.07,-117.83"/>
<polygon fill="grey" stroke="grey" stroke-width="2" points="207.46,-118.69 207.12,-108.1 200.79,-116.59 207.46,-118.69"/>
</g>
<!-- 4 -->
<g id="node5" class="node">
<title>4</title>
<path fill="none" stroke="#59d856" stroke-width="2" d="M302,-252C302,-252 169,-252 169,-252 163,-252 157,-246 157,-240 157,-240 157,-228 157,-228 157,-222 163,-216 169,-216 169,-216 302,-216 302,-216 308,-216 314,-222 314,-228 314,-228 314,-240 314,-240 314,-246 308,-252 302,-252"/>
<text text-anchor="middle" x="235.5" y="-231.5" font-family="sans" font-size="10.00">reverse_transcribe_barcodes</text>
</g>
<!-- 4&#45;&gt;3 -->
<g id="edge6" class="edge">
<title>4&#45;&gt;3</title>
<path fill="none" stroke="grey" stroke-width="2" d="M224.38,-215.7C219.14,-207.56 212.8,-197.69 207.02,-188.7"/>
<polygon fill="grey" stroke="grey" stroke-width="2" points="209.85,-186.62 201.5,-180.1 203.96,-190.41 209.85,-186.62"/>
</g>
<!-- 5&#45;&gt;0 -->
<g id="edge4" class="edge">
<title>5&#45;&gt;0</title>
<path fill="none" stroke="grey" stroke-width="2" d="M188.53,-71.88C175.95,-62.89 160.37,-51.76 146.75,-42.03"/>
<polygon fill="grey" stroke="grey" stroke-width="2" points="148.74,-39.15 138.57,-36.19 144.67,-44.85 148.74,-39.15"/>
</g>
</g>
</svg>
